<svg width="358" height="103" viewBox="0 0 358 103" fill="none" xmlns="http://www.w3.org/2000/svg">
<path d="M2 100.32C10.4059 95.2914 16.4031 93.0432 21.0631 92.5024C33.0405 91.1124 45.7251 93.1053 53.1233 83.5839L63.0737 70.7777C69.1663 62.9364 81.363 64.1705 85.7615 73.0733C89.1935 80.0201 97.7687 82.64 104.497 78.7974L112.307 74.3374C116.846 71.7449 122.162 70.8598 127.297 71.8416L127.808 71.9392C135.753 73.4583 143.917 70.7543 149.385 64.7932L155.521 58.1027C158.097 55.2941 161.346 53.188 164.962 51.9831L170.909 50.0012C180.103 46.9372 189.959 52.3511 192.305 61.7541C195.465 74.4186 208.239 76.9152 217.188 67.4129C227.709 56.2406 239.523 45.1157 242.648 44.3203C245.283 43.6498 251.092 44.3902 257.453 45.8202C270.429 48.7372 286.175 44.8692 293.64 33.862L307.441 13.5112C308.873 11.3999 310.66 9.55243 312.722 8.05072L316.624 5.20955C323.56 0.158542 333.192 1.16745 338.931 7.54617C340.574 9.37318 342.6 10.816 344.864 11.7722L358 17.3203" stroke="#1A71F6" stroke-width="4" stroke-linecap="round" stroke-dasharray="7 7"/>
</svg>
