<svg width="358" height="113" viewBox="0 0 358 113" fill="none" xmlns="http://www.w3.org/2000/svg">
<path d="M2 86.8695C21.2306 75.9015 33.6516 93.4097 43.0022 105.14C47.6079 110.918 55.1432 111.898 62.0153 109.184L80.7738 101.773C83.8565 100.555 86.6535 98.7118 88.9886 96.3594L109.256 75.9425C111.312 73.8704 113.73 72.1911 116.39 70.9869L137.595 61.3859C140.705 59.9778 144.08 59.2494 147.494 59.2494H150.571C157.51 59.2494 164.11 62.2531 168.668 67.4858L178.991 79.3367L187.653 88.1519C199.217 99.9191 219.256 93.2733 221.496 76.9278C221.868 74.2109 222.727 71.525 224.648 69.5682C234.192 59.8467 257.474 52.1616 263.448 50.7123C266.4 49.9961 275.446 52.6117 283.896 54.0419C297.104 56.2776 310.04 41.2911 322.561 36.531L326.045 35.2065C332.065 32.9183 336.912 28.307 339.498 22.4092L341.906 16.9153C343.87 12.4359 347.156 8.66335 351.323 6.10294L358 2.00049" stroke="#BCF328" stroke-width="4" stroke-linecap="round"/>
</svg>
