<svg width="518" height="114" viewBox="0 0 518 114" fill="none" xmlns="http://www.w3.org/2000/svg">
<path d="M2 86.5005C34.3943 74.121 53.7847 98.1771 68.2662 108.984C72.3656 112.043 77.6668 112.295 82.6116 110.986L122.077 100.539C124.674 99.8515 127.137 98.7331 129.363 97.2303L163.002 74.5244C164.989 73.1827 167.167 72.1465 169.462 71.4503L207.093 60.0341C209.352 59.3488 211.7 59.0005 214.06 59.0005H230.837C236.13 59.0005 241.275 60.7503 245.47 63.9775L265 79.0005L290.196 96.1793C304.361 105.838 323.793 97.9567 327.229 81.1594L327.674 78.9841C328.542 74.7409 330.498 70.6948 334.176 68.408C349.082 59.1412 381.89 51.9001 390.5 50.5005C394.91 49.7836 408.471 52.4193 421.084 53.8382C437.005 55.6292 460.054 41.0386 475.58 37.0839L488.453 33.805C494.272 32.3227 499.324 28.7128 502.612 23.6879L507.496 16.2226C510.148 12.1695 513.964 9.01373 518.443 7.16991L531 2.00049" stroke="#BCF328" stroke-width="4" stroke-linecap="round"/>
</svg>
